HIERARCHY
ROOT Hip
{
    OFFSET 0.0 0.0 0.0
    CHANNELS 6 Xposition Yposition Zposition Zrotation Xrotation Yrotation
    JOINT RightHip
    {
        OFFSET -13.06795883178711 0.0 0.0
        CHANNELS 3 Zrotation Xrotation Yrotation
        JOINT RightKnee
        {
            OFFSET 0.0 0.0 -44.5794677734375
            CHANNELS 3 Zrotation Xrotation Yrotation
            JOINT RightAnkle
            {
                OFFSET 0.0 0.0 -44.574058532714844
                CHANNELS 3 Zrotation Xrotation Yrotation
                End Site
                {
                    OFFSET 0.0 -17.82962417602539 0.0
                }
            }
        }
    }
    JOINT LeftHip
    {
        OFFSET 13.06795883178711 0.0 0.0
        CHANNELS 3 Zrotation Xrotation Yrotation
        JOINT LeftKnee
        {
            OFFSET 0.0 0.0 -44.5794677734375
            CHANNELS 3 Zrotation Xrotation Yrotation
            JOINT LeftAnkle
            {
                OFFSET 0.0 0.0 -44.574058532714844
                CHANNELS 3 Zrotation Xrotation Yrotation
                End Site
                {
                    OFFSET 0.0 -17.82962417602539 0.0
                }
            }
        }
    }
    JOINT Spine
    {
        OFFSET 0.0 0.0 23.108001708984375
        CHANNELS 3 Zrotation Xrotation Yrotation
        JOINT Thorax
        {
            OFFSET 0.0 0.0 25.374858856201172
            CHANNELS 3 Zrotation Xrotation Yrotation
            JOINT Neck
            {
                OFFSET 0.0 0.0 9.957420349121094
                CHANNELS 3 Zrotation Xrotation Yrotation
                End Site
                {
                    OFFSET 0.0 0.0 3.982968807220459
                }
            }
            JOINT LeftShoulder
            {
                OFFSET 14.43388557434082 0.0 0.0
                CHANNELS 3 Zrotation Xrotation Yrotation
                JOINT LeftElbow
                {
                    OFFSET 27.0897216796875 0.0 0.0
                    CHANNELS 3 Zrotation Xrotation Yrotation
                    JOINT LeftWrist
                    {
                        OFFSET 24.485370635986328 0.0 0.0
                        CHANNELS 3 Zrotation Xrotation Yrotation
                        End Site
                        {
                            OFFSET 9.794146537780762 0.0 0.0
                        }
                    }
                }
            }
            JOINT RightShoulder
            {
                OFFSET -14.43388557434082 0.0 0.0
                CHANNELS 3 Zrotation Xrotation Yrotation
                JOINT RightElbow
                {
                    OFFSET -27.0897216796875 0.0 0.0
                    CHANNELS 3 Zrotation Xrotation Yrotation
                    JOINT RightWrist
                    {
                        OFFSET -24.485370635986328 0.0 0.0
                        CHANNELS 3 Zrotation Xrotation Yrotation
                        End Site
                        {
                            OFFSET -9.794146537780762 0.0 0.0
                        }
                    }
                }
            }
        }
    }
}
MOTION
Frames: 9
Frame Time: 0.03333333333333333
0.0006860733265057206 -0.0027160742320120335 1.342892210232094e-05 121.26944878976038 -52.53340672127929 -75.79570916802676 6.034652974715088 -41.62019530657663 7.202553323101716 -0.6448440230073693 19.331724874567723 3.386713321109294 0.0 0.0 0.0 5.294978741652384 -37.88852120221131 5.568076778958206 -0.9460349284303452 17.390194271214785 2.4773961389402452 1.7655625192200634e-31 6.3611093629270335e-15 -3.1805546814635168e-15 -2.97795335567 23.679781485872244 0.5087617648565181 4.572836501649062 1.5420614607460905e-06 5.951269106324987e-06 7.750741783818721 0.19133286760800602 -4.223673024006455 -40.799137078025346 -14.699051676215449 52.53229074000643 -36.848989552440315 2.2473012348417785e-06 1.9929909536703403e-07 6.361109362927033e-15 -1.3241718894150476e-31 -2.385416011097637e-15 47.73289697569636 -3.437329808741131 -49.10018359934684 23.454698019816092 3.71482171231827e-07 -3.056731404764477e-07 -6.3611093629270335e-15 6.361109362927032e-15 6.3611093629270335e-15
0.0006422807928174734 -0.0027688206173479557 1.4841927622910589e-05 126.61489281981814 -50.662880909014284 -72.60549365465515 8.058651010829822 -46.317027297545124 9.071542645521262 -0.7436202455562788 20.376393664403434 3.957270159960833 -1.7655625192200634e-31 -6.3611093629270335e-15 -3.1805546814635168e-15 6.9254207935250225 -41.955534678817244 6.966386253428372 -1.0642295464193323 17.674004722511885 3.2147276245054264 1.5902773407317584e-15 -6.3611093629270335e-15 8.827812596100317e-32 -3.2515177086574263 22.940415027242064 1.4693758433317097 5.209110143271082 4.306517658951012e-06 7.231662048563675e-07 5.797191888984169 -1.3445558250058884 -3.6756728117152275 -41.12449384084664 -16.648478040691362 50.6019093280342 -36.9054660986931 -2.408720515292336e-06 -2.404444478071292e-06 0.0 1.5902773407317582e-15 0.0 45.391803988004455 -7.488830270020408 -47.834329743522716 24.208270210493406 4.031083384557722e-06 1.7134825391621796e-06 0.0 0.0 0.0
0.0006775306537747383 -0.0029284427873790264 -7.1304602897726e-05 131.0732211968005 -49.098061567645885 -70.5501545146291 10.406074003250628 -50.713807030206915 12.107197860778118 -0.5027917649726353 22.154853169695613 3.3169533460496026 -3.180554681463516e-15 -6.361109362927032e-15 -3.180554681463516e-15 8.608797828933758 -45.32580337360387 8.909233069074489 -1.0038169346466101 17.840920628193295 3.6869096329302717 -3.531125038440127e-31 6.361109362927033e-15 6.361109362927033e-15 -3.564069218388266 22.79956242635971 2.0667530747526324 5.3793891198150785 -4.212334455719325e-07 7.710375419205844e-07 5.0415243195816855 -1.845976531572043 -2.9497603480746273 -40.439098155889496 -18.38940469925127 50.242242975408374 -37.4051854592783 1.0398999601223514e-06 1.2629976206203312e-06 0.0 0.0 -7.951386703658792e-16 45.155393465266464 -9.15145495785451 -45.532516321957985 24.32606062838778 9.75245749583111e-07 -8.439083597504403e-07 0.0 0.0 0.0
0.0006358175305649638 -0.0029439027421176434 -9.775681064638775e-06 135.49646080161756 -46.76618472159627 -68.42308728068663 12.751188069998383 -55.08860618263482 14.323519293934279 -0.4586120191630153 22.671712153757078 3.2160697517618204 -9.54166404439055e-15 0.0 0.0 10.067373570879251 -48.57295718760201 10.845721823265885 -0.7762005920168124 17.352807696757463 3.6997081303840686 -3.1805546814635168e-15 6.3611093629270335e-15 1.7655625192200634e-31 -3.5605450940547736 21.942258807742498 3.064276899560729 5.688484155961534 -4.380785815878989e-06 -3.41515071307387e-06 3.598425193113351 -3.424420867625051 -2.396869275391114 -41.174641857843184 -18.650681139252477 49.2767354895213 -36.79618117530361 -1.5401680308567715e-06 -2.064935813988305e-06 6.3611093629270335e-15 4.4139062980501586e-32 7.951386703658792e-16 45.22983104605312 -10.398568177669446 -43.91170949732127 24.72381371342451 -3.8023734979019327e-07 -2.246168082583396e-06 6.3611093629270335e-15 -3.1805546814635168e-15 3.1805546814635168e-15
0.000578218896407634 -0.002972896210849285 -8.367487680516206e-06 139.1593637759925 -44.78918451693513 -66.91376303086057 16.338770081327358 -58.79119088586717 17.628494144775715 -0.5639163999449837 23.703836636439306 3.2403176560163645 -3.1805546814635168e-15 6.3611093629270335e-15 6.3611093629270335e-15 12.572186991988039 -51.90670142735063 13.279745327780091 -0.8228426246802419 17.87874889014457 3.615718899205187 3.1805546814635164e-15 -8.827812596100317e-32 -3.1805546814635164e-15 -3.753478404640798 20.999665102814017 4.138967942997834 6.152006591397447 -2.956670124146385e-06 1.6229640244310594e-06 1.6666000353684296 -4.941192956777959 -2.0452888078603224 -40.6603708578121 -20.212328847582985 49.163284009399995 -35.51603744503568 -9.598217575692116e-07 -1.3452789317662806e-06 0.0 0.0 0.0 44.33543064389532 -13.341275886987422 -42.97229565308674 24.75159843516543 -7.550902126285755e-07 1.27946673842911e-06 0.0 3.1805546814635168e-15 0.0
0.0006506794597953558 -0.0030504553578794003 -4.4349559175316244e-05 142.12145565231802 -43.74259853473014 -65.76151170577515 19.522340789426845 -61.616493952797924 21.132827567072603 -0.3757489237001047 24.898481525290613 2.8276378796406716 0.0 -6.3611093629270335e-15 0.0 14.664677926987626 -54.47164214866832 15.704204396687276 -0.7132807008674575 18.514716344627434 3.4582992313483247 3.1805546814635168e-15 0.0 0.0 -3.9392361197717616 20.818330144186696 4.348084161696856 6.353853600067816 -2.1927538062021155e-06 -2.6036980218209097e-06 1.1236942596478923 -6.010572540868467 -1.0886053311160084 -40.095505217362486 -22.162097734062826 49.441824224373896 -34.429566545757474 2.8740580603948296e-06 1.0789135246835168e-07 -2.2069531490250793e-32 -1.5902773407317584e-15 -1.5902773407317584e-15 44.31743578871915 -14.77328066541937 -41.68237766839025 24.18352296286855 -6.5368858214474995e-06 -1.8975423587093227e-06 6.3611093629270335e-15 3.1805546814635168e-15 -1.7655625192200634e-31
0.0006516671273857355 -0.003165588714182377 7.776980964990798e-06 144.76208248558186 -41.89957019569407 -65.11594880024728 22.608571211776454 -64.17091386470831 24.060370826068006 -0.34852314549764934 24.643439892881073 3.3395119190544715 -6.3611093629270335e-15 1.2722218725854067e-14 7.062250076880254e-31 16.52157522970975 -56.77175097497838 17.664941871510013 -0.6072719895294677 18.001418125681536 3.414225205761395 -3.1805546814635168e-15 6.3611093629270335e-15 3.1805546814635168e-15 -3.991781130986918 20.499076451741853 5.284342240226879 6.683964573839613 -1.7132855991610764e-06 5.129876653738494e-07 -0.13140919938881707 -8.50320581883267 -0.5844939704385604 -39.43819949915346 -23.416124428978687 48.31953598019958 -33.92348281546338 2.250183910316621e-06 -6.38066292745629e-07 6.3611093629270335e-15 0.0 0.0 45.86870458089746 -15.630553852908474 -39.515459853165986 23.90120524374618 9.002600409861417e-08 -1.91039826918893e-06 0.0 -3.1805546814635168e-15 0.0
0.0006163703510537744 -0.0032908995635807514 5.608859282801859e-06 147.41224789088383 -40.10831470784322 -63.92621291792704 26.830309985758635 -67.02955656727825 27.880016693174802 -0.4198582699135717 25.153808713527138 3.7012908509213784 -6.3611093629270335e-15 -3.531125038440127e-31 6.3611093629270335e-15 19.050541283717948 -59.597947640419434 19.358913329075776 -0.8271078884603016 18.503501590296704 4.033793529098724 6.3611093629270335e-15 1.7655625192200634e-31 3.1805546814635168e-15 -4.018461356825779 20.10683044946547 5.7131245681951945 7.00173471282756 1.8383860674109522e-06 4.008648876656158e-07 -1.9465023474235403 -10.313455904393921 -0.4267928624484438 -39.214742741699936 -25.26221044195062 47.50460495950686 -33.52458742926727 2.4746061007984286e-06 2.1907527587457474e-07 -6.361109362927033e-15 -4.4139062980501586e-32 7.951386703658791e-16 45.35174271740255 -19.78623386845511 -38.32475135265954 23.26891828564195 -1.6777939164424947e-06 2.915006538210107e-06 0.0 0.0 0.0
0.0006031328812241554 -0.0033955650869756937 -3.054868648177944e-05 149.47984669959925 -39.08478694397271 -63.134228361544416 30.96958034378973 -69.08191451778029 32.255735211618564 -0.22157195232828908 25.968968866430632 3.3508202422268307 0.0 0.0 -3.1805546814635168e-15 21.125981911405564 -61.35397668145107 21.20620306324338 -0.8795504853969927 18.902569985088807 4.434787961489137 3.1805546814635168e-15 -8.827812596100317e-32 -3.1805546814635168e-15 -4.182669624931926 20.335421181298592 5.508760169613787 7.220853496774938 -1.472199898816589e-06 1.0544101578514677e-06 -1.7896886076607283 -10.92852615834568 0.2979039712438732 -37.24912425477401 -27.15187954573257 48.088013259771266 -34.06988377950562 2.3983167012933117e-06 1.5181055762262008e-06 0.0 1.5902773407317584e-15 0.0 45.45461090212913 -21.78049331187636 -36.67558745090686 22.850154299948443 -6.465332823877177e-08 -4.3409756866359147e-07 6.3611093629270335e-15 1.7655625192200634e-31 3.1805546814635168e-15
